<svg width="101" height="24" viewBox="0 0 101 24" fill="none" xmlns="http://www.w3.org/2000/svg">
<g clip-path="url(#clip0_159_90006)">
<path d="M11.3398 7.5236C11.3398 8.41536 12.0872 9.1376 13.0116 9.1376C13.936 9.1376 14.69 8.41536 14.6834 7.5236V1.61399C14.6834 0.722216 13.936 0 13.0116 0C12.0872 0 11.3398 0.722216 11.3398 1.61399V7.5236Z" fill="white"/>
<path d="M28.9688 1.5C28.9688 0.671572 29.6698 0 30.5347 0H49.3255C50.1903 0 50.8912 0.671572 50.8912 1.5C50.8912 2.32843 50.1903 3 49.3255 3H41.4958V22.5C41.4958 23.3284 40.7948 24 39.93 24C39.0652 24 38.3641 23.3284 38.3641 22.5V3H30.5347C29.6698 3 28.9688 2.32843 28.9688 1.5Z" fill="white"/>
<path d="M86.9069 0C86.0421 0 85.3408 0.671572 85.3408 1.5V22.5C85.3408 23.3284 86.0421 24 86.9069 24C87.7717 24 88.4726 23.3284 88.4726 22.5V9H97.8681V22.5C97.8681 23.3284 98.569 24 99.4342 24C100.299 24 101 23.3284 101 22.5V10.5C101 9.67156 100.299 9 99.4342 9H97.8681V7.5C97.8681 6.67156 97.1672 6 96.3024 6H88.4726V1.5C88.4726 0.671572 87.7717 0 86.9069 0Z" fill="white"/>
<path d="M71.2478 6C70.383 6 69.6821 6.67156 69.6821 7.5V9H68.116C67.2512 9 66.5503 9.67156 66.5503 10.5V19.5C66.5503 20.3284 67.2512 21 68.116 21H69.6821V22.5C69.6821 23.3284 70.383 24 71.2478 24H77.5114C78.3762 24 79.0771 23.3284 79.0771 22.5V21H80.6432C81.508 21 82.2089 20.3284 82.2089 19.5V18H79.0771V21H69.6821V9H79.0771V12H82.2089V10.5C82.2089 9.67156 81.508 9 80.6432 9H79.0771V7.5C79.0771 6.67156 78.3762 6 77.5114 6H71.2478Z" fill="white"/>
<path d="M50.8916 7.5C50.8916 6.67156 51.5929 6 52.4577 6H58.7209C59.5861 6 60.287 6.67156 60.287 7.5V9H50.8916V7.5Z" fill="white"/>
<path d="M50.8916 21H49.3259C48.4611 21 47.7598 20.3284 47.7598 19.5V10.5C47.7598 9.67156 48.4611 9 49.3259 9H50.8916V15H60.287V9H61.8527C62.7175 9 63.4188 9.67156 63.4188 10.5V16.5C63.4188 17.3284 62.7175 18 61.8527 18H50.8916V21Z" fill="white"/>
<path d="M50.8916 21H60.287V22.5C60.287 23.3284 59.5861 24 58.7209 24H52.4577C51.5929 24 50.8916 23.3284 50.8916 22.5V21Z" fill="white"/>
<path d="M9.10436 11.8694C8.81592 12.7172 7.87183 13.1819 6.99334 12.9056L1.15851 11.078C0.280003 10.8017 -0.205141 9.89112 0.0833231 9.04956C0.365231 8.20176 1.31585 7.73704 2.19435 8.01336L8.02918 9.84088C8.90771 10.1109 9.38627 11.0215 9.10436 11.8694Z" fill="white"/>
<path d="M19.0371 12.9055C18.1586 13.1818 17.2145 12.7171 16.9261 11.8693C16.6376 11.0215 17.1228 10.1109 18.0013 9.83453L23.8427 8.00701C24.7212 7.73069 25.6718 8.19542 25.9537 9.04322C26.2356 9.89106 25.757 10.8017 24.8785 11.078L19.0371 12.9055Z" fill="white"/>
<path d="M5.0207 23.6949C4.27334 23.1737 4.10943 22.1626 4.64704 21.4403L8.25282 16.6549C8.79696 15.9327 9.84594 15.7757 10.5933 16.2969C11.3407 16.8182 11.5046 17.8293 10.9604 18.5452L7.35465 23.3307C6.81051 24.0529 5.7681 24.2162 5.0207 23.6949Z" fill="white"/>
<path d="M21.383 21.4404C21.9206 22.1626 21.7567 23.1737 21.0093 23.6949C20.262 24.2162 19.213 24.0529 18.6688 23.3307L15.0631 18.5452C14.5254 17.8293 14.6894 16.8182 15.4368 16.2969C16.1841 15.7757 17.2331 15.9327 17.7772 16.6549L21.383 21.4404Z" fill="white"/>
</g>
<defs>
<clipPath id="clip0_159_90006">
<rect width="101" height="24" fill="white"/>
</clipPath>
</defs>
</svg>
